# xmcd CD database file
#
# Track frame offsets:
#	150
#	14226
#	25779
#	36621
#	45996
#	59651
#	72574
#	85516
#	98164
#	113429
#	124224
#	136836
#	147016
#	158604
#
# Disc length: 2283 seconds
#
# Revision: 1
# Processed by: cddbd v1.5.2PL0 Copyright (c) Steve Scherf et al.
# Submitted via: CDex 1.51
#
DISCID=bb08e90e
DTITLE=O.V. Wright - 8men And 4Women
DYEAR=2008
DGENRE=Soul
TTITLE0=Eight Men And Four Women
TTITLE1=Why Don't You Believe Me
TTITLE2=Can't Find True Love
TTITLE3=Don't Want To Sit Down
TTITLE4=Everybody Knows
TTITLE5=I Could Write A Book
TTITLE6=Wish I Were That Boy
TTITLE7=Bachelor's Blues
TTITLE8=You're Gonna Make Me Cry
TTITLE9=Money Dog
TTITLE10=You've Been Crying
TTITLE11=I Can't Blieve
TTITLE12=Motherless Child
TTITLE13=If It's Only For Tonight
EXTD=YEAR: 2008
EXTT0=
EXTT1=
EXTT2=
EXTT3=
EXTT4=
EXTT5=
EXTT6=
EXTT7=
EXTT8=
EXTT9=
EXTT10=
EXTT11=
EXTT12=
EXTT13=
PLAYORDER=
